<svg xmlns="http://www.w3.org/2000/svg" viewBox="170 305 425 50" fill="rgb(32, 34, 4)">
<path
	d="
M364.259521,310.732910
	C367.310547,308.228821 369.053833,308.058746 375.571350,309.629425
	C371.314178,314.381866 369.333862,319.885284 367.378540,325.414062
	C365.162903,331.679016 362.791382,337.888947 360.473724,344.117615
	C359.742493,346.082672 358.670685,347.828735 356.299316,347.803650
	C353.947235,347.778778 352.848877,346.014984 352.106506,344.078461
	C350.096558,338.835358 348.143066,333.570587 345.930756,327.685608
	C342.687775,331.451782 342.117676,335.613800 340.549927,339.291443
	C339.964081,340.665680 339.534149,342.106476 339.034821,343.517487
	C338.286316,345.632477 337.323303,347.694519 334.751526,347.804199
	C331.828217,347.928925 330.885590,345.535919 330.067841,343.352661
	C327.153046,335.570465 324.172424,327.806305 321.547333,319.925171
	C320.327240,316.262207 317.590210,313.499146 315.907074,309.404816
	C321.439697,308.046783 326.605743,308.771637 332.286316,308.806915
	C331.035278,316.283936 334.619446,321.990967 337.179047,328.596924
	C341.861725,321.175995 341.881134,319.967987 337.687988,309.108032
	C343.044586,308.324524 348.209961,308.557495 353.763031,308.951904
	C353.011810,316.144348 356.089111,321.900940 359.314026,327.832184
	C361.867828,322.435486 365.170380,317.430237 364.259521,310.732910
z"/>
<path
	d="
M408.994263,332.875702 
	C408.658997,324.853882 410.261871,317.108978 405.578339,308.965088 
	C415.057526,308.942993 423.585754,306.927277 431.778259,310.604309 
	C437.025757,312.959534 438.582581,317.654053 436.325317,323.113861 
	C435.545105,325.001007 435.351562,326.221466 436.749146,328.006622 
	C443.117157,336.140625 439.787720,345.468750 429.661072,346.821472 
	C422.955475,347.717194 416.052673,347.212769 409.238861,347.181976 
	C406.804108,347.170990 405.841980,345.665222 407.128906,343.511749 
	C409.041229,340.311707 408.932098,336.841919 408.994263,332.875702 
M426.652527,337.224121 
	C426.610565,333.988129 426.136108,331.060547 421.812164,330.425781 
	C420.231079,334.699615 419.689972,338.611755 422.053741,342.464539 
	C425.167877,342.052765 425.882599,340.029877 426.652527,337.224121 
M423.878693,314.458954 
	C418.654053,314.831970 421.617584,319.025818 420.749725,321.400696 
	C420.455750,322.205109 421.222992,323.347870 422.439514,323.421783 
	C423.589355,323.491638 424.297028,322.717590 424.591949,321.729919 
	C425.266998,319.469025 425.369568,317.189514 423.878693,314.458954 
z"/>
<path
	d="
M183.755737,347.282104 
	C181.610626,347.087921 180.243042,346.405304 181.043472,344.418213 
	C185.675095,332.919922 184.681854,321.471313 180.527283,308.704285 
	C189.929382,309.366333 199.129639,306.369202 207.680420,311.683105 
	C211.880356,314.293152 212.785446,318.191345 210.705002,322.984741 
	C209.962204,324.696136 208.914536,326.050842 210.801605,327.818573 
	C214.465866,331.251068 215.310745,335.528992 213.385025,340.132385 
	C211.331833,345.040527 206.946747,346.782837 202.126266,347.077911 
	C196.159149,347.443115 190.157944,347.251678 183.755737,347.282104 
M198.886658,330.969666 
	C196.799347,329.731079 195.039856,329.341370 194.939789,332.657379 
	C194.875076,334.801666 194.786636,336.962524 194.980545,339.091217 
	C195.107697,340.487152 195.202271,342.372498 197.290131,342.309204 
	C198.939697,342.259216 200.108673,340.991516 200.415588,339.504944 
	C200.981445,336.764282 201.474121,333.912933 198.886658,330.969666 
M195.175873,316.271027 
	C195.108932,318.813202 194.354309,321.437897 195.748550,323.927704 
	C199.535065,322.047913 201.005630,317.681274 198.928070,315.012634 
	C197.539215,313.228607 196.212677,313.233307 195.175873,316.271027 
z"/>
<path
	d="
M227.862045,318.256134 
	C227.946793,314.950714 225.752594,312.660706 225.314941,309.069550 
	C233.726517,308.888184 241.764236,307.139252 249.552505,310.485870 
	C253.446869,312.159302 256.036285,315.162933 256.228119,319.669739 
	C256.413269,324.018799 253.944809,326.797485 250.516983,328.957642 
	C249.550934,329.566467 248.589157,330.182098 247.396469,330.940155 
	C248.651443,333.773712 249.131378,337.031891 253.497162,335.775848 
	C256.245331,334.985260 258.383881,335.870728 259.805511,338.426910 
	C261.076080,340.711578 260.989532,342.920715 259.413544,344.970795 
	C257.664886,347.245483 255.366852,348.405792 252.433228,347.785095 
	C248.057663,346.859344 245.821548,343.687286 244.053268,339.910828 
	C242.957367,337.570343 242.881485,334.679413 240.263367,332.689667 
	C238.215714,336.302856 239.634827,339.560944 240.928513,342.589233 
	C242.366592,345.955505 241.475922,347.307922 237.971024,347.236145 
	C234.317108,347.161346 229.882584,348.313416 227.190918,346.654663 
	C222.991180,344.066620 228.166092,340.488770 228.280792,337.076019 
	C228.488052,330.908813 228.830505,324.800659 227.862045,318.256134 
M240.506851,325.939270 
	C245.083984,323.551086 245.473236,317.011292 240.875641,313.853394 
	C238.649887,317.689026 238.884277,321.608398 240.506851,325.939270 
z"/>
<path
	d="
M527.850342,329.752319 
	C526.254456,333.743347 528.169983,336.734070 531.759338,336.057587 
	C534.672485,335.508575 537.168030,335.485779 538.599243,338.419220 
	C539.765564,340.809814 539.705261,343.383820 537.887939,345.456451 
	C535.680603,347.973785 532.877930,348.445221 529.712830,347.235687 
	C526.121094,345.863098 524.360901,342.951813 522.890564,339.687225 
	C521.847168,337.370514 521.510071,334.638458 518.942688,332.340057 
	C517.620789,336.469391 518.551147,339.780396 519.928223,342.904480 
	C521.350586,346.131134 520.181091,347.217743 517.066284,347.229004 
	C516.400146,347.231415 515.730103,347.284088 515.068542,347.230743 
	C511.782104,346.965759 507.670197,348.648010 505.395599,346.420288 
	C502.760620,343.839569 506.945679,340.931458 507.154541,337.895233 
	C507.805725,328.428864 508.162903,319.012238 503.713165,308.783356 
	C513.143860,309.241608 521.908325,306.532196 530.019714,311.481415 
	C537.754822,316.200989 536.829163,324.173981 527.850342,329.752319 
M518.486328,325.036285 
	C519.290527,326.419067 520.344238,326.197205 521.357178,325.380096 
	C524.812744,322.592560 524.047424,316.362610 519.772766,313.872162 
	C517.813965,317.186462 518.218689,320.791656 518.486328,325.036285 
z"/>
<path
	d="
M564.984375,310.670105 
	C569.440552,317.459869 573.621399,323.969452 578.515076,331.588959 
	C578.950317,323.316345 579.716492,316.444183 575.871582,309.920319 
	C580.090393,308.033813 583.560486,308.507446 587.799805,309.394928 
	C584.097412,316.598358 585.091553,324.077362 585.007690,331.444580 
	C584.960571,335.584808 584.666077,339.777466 586.875732,343.614899 
	C587.751892,345.136536 587.517639,346.431458 585.558289,347.105316 
	C580.630981,348.799866 574.424744,346.827972 571.559204,342.359863 
	C567.729797,336.388794 564.048767,330.322540 559.864868,324.439972 
	C559.166382,330.920074 558.367554,337.285309 561.068298,343.437836 
	C561.540405,344.513458 562.191528,345.903503 560.827576,346.529633 
	C558.008545,347.823761 554.966187,347.541992 552.086914,346.683716 
	C550.692566,346.268066 550.997864,344.888397 551.377502,343.694824 
	C554.901428,332.618805 555.112671,321.595856 550.807434,310.647400 
	C550.707031,310.392181 550.912842,310.016602 551.099121,309.072510 
	C555.613403,308.882629 560.276672,307.341400 564.984375,310.670105 
z"/>
<path
	d="
M285.661072,318.728333 
	C285.160980,326.667480 285.160980,326.667480 295.415314,324.203094 
	C297.249298,327.886292 297.249298,327.886292 295.961487,332.029846 
	C294.743042,332.821564 293.768280,332.097595 292.753143,331.527893 
	C290.649597,330.347534 288.022919,329.156708 286.345886,331.202545 
	C284.157990,333.871643 285.588196,337.243683 286.279633,340.298920 
	C286.882019,342.960449 289.016083,342.848053 291.037476,342.768768 
	C294.447723,342.635071 297.533630,341.545410 300.320343,339.540314 
	C301.663239,338.574066 302.639954,335.963379 304.768127,337.641296 
	C306.668518,339.139648 306.026733,341.629730 305.864502,343.754364 
	C305.701721,345.885864 304.425903,347.106720 302.281586,347.161163 
	C298.621094,347.254089 294.957825,347.257965 291.295685,347.261871 
	C285.967865,347.267548 280.639465,347.280792 275.312500,347.206482 
	C273.211060,347.177185 270.932709,347.005463 272.179688,343.844025 
	C276.660492,332.483978 275.676819,321.199738 271.805817,309.889374 
	C272.584045,308.417358 274.061890,308.706482 275.316193,308.698364 
	C282.974487,308.648987 290.633575,308.717133 298.291626,308.653687 
	C301.524384,308.626892 303.848663,309.930695 304.784882,313.012268 
	C305.629486,315.792328 304.192841,317.900360 301.909241,319.312073 
	C298.858704,321.197876 296.550049,319.727539 294.552002,317.343689 
	C294.124908,316.834167 293.670959,316.341156 293.185272,315.887726 
	C289.023132,312.001984 287.041656,312.653778 285.661072,318.728333 
z"/>
<path
	d="
M452.355133,343.443939 
	C458.260590,332.800781 463.074188,322.162659 464.512756,309.335754 
	C470.469940,306.278381 476.754120,308.482178 479.522797,315.799255 
	C481.699890,321.552979 483.908264,327.297638 485.930298,333.106384 
	C487.510254,337.645203 489.392853,341.994446 493.402679,346.115479 
	C487.813629,347.992218 483.057159,347.252350 478.390137,347.040344 
	C476.698090,346.963501 476.766663,345.459259 476.839478,343.974030 
	C477.175629,337.114838 475.734619,335.384705 469.966003,335.331665 
	C462.769897,335.265472 461.561096,336.606995 461.557373,344.172394 
	C461.554688,349.642242 457.331177,346.836456 454.953583,347.183838 
	C452.843079,347.492249 450.023621,347.342499 452.355133,343.443939 
M467.770508,323.654083 
	C467.222717,326.009430 465.404175,328.018188 465.755920,330.732086 
	C468.005157,331.853851 470.160309,331.999481 472.603546,330.700348 
	C472.781342,327.604187 471.336639,324.923431 470.014862,322.354462 
	C468.934662,320.255066 468.437347,322.089905 467.770508,323.654083 
z"/>
</svg>