<svg xmlns="http://www.w3.org/2000/svg" viewBox="225 25 315 251" fill="white">
<path
	d="
M431.930420,208.147247 
	C432.062653,210.443008 435.540283,212.239334 432.948517,214.163406 
	C428.648346,217.355789 425.217041,213.899643 421.584778,211.612656 
	C418.400055,214.271103 415.246918,216.903168 412.099213,219.530701 
	C412.903168,221.443008 414.440247,220.758194 415.597412,220.775101 
	C421.092590,220.855377 426.591400,220.725403 432.085144,220.844925 
	C434.252258,220.892090 437.705292,220.085388 437.680725,223.285156 
	C437.656128,226.487320 437.270660,230.573532 432.566284,231.236313 
	C431.247040,231.422195 429.501740,231.240417 429.083801,232.672089 
	C427.528473,238.000015 423.322266,237.266891 419.354156,237.264191 
	C395.203186,237.247803 371.052124,237.216446 346.901276,237.267105 
	C343.723358,237.273773 340.864105,237.172119 339.704590,233.478104 
	C339.175842,231.793686 337.751343,231.336929 336.146332,231.291763 
	C334.380859,231.242081 333.005188,230.699265 332.043243,229.007050 
	C328.731903,223.182175 330.014954,220.845993 336.726013,220.810562 
	C343.017242,220.777344 349.308838,220.803467 355.874878,220.803467 
	C355.675964,218.295181 353.863770,217.738419 352.716187,216.771729 
	C342.761261,208.385925 336.662903,197.853592 334.529327,184.978989 
	C334.099243,182.383621 334.064972,179.686218 332.818207,177.222092 
	C330.869690,173.371063 332.964935,171.596176 336.473663,170.939880 
	C338.087341,170.638046 339.794525,170.811630 341.459320,170.811295 
	C369.107941,170.805710 396.756958,170.732391 424.404877,170.871750 
	C429.656006,170.898224 434.551361,170.216187 439.416962,168.139893 
	C445.778168,165.425385 452.661499,166.590607 456.053406,170.753220 
	C460.365204,176.044785 459.939178,181.884811 457.165405,187.662704 
	C453.700256,194.880722 446.826385,198.210861 440.360413,202.002960 
	C437.420837,203.726929 433.628326,204.269394 431.930420,208.147247 
M350.688385,193.582443 
	C349.119537,189.539719 347.829865,185.433365 347.583771,181.056320 
	C347.499603,179.559097 346.751282,178.517944 345.096497,178.525055 
	C343.631775,178.531342 343.065125,179.583511 342.915222,180.801086 
	C342.734619,182.268082 342.509644,183.796417 342.726776,185.234360 
	C343.839447,192.604019 346.517975,199.397293 351.167267,205.238968 
	C355.945099,211.242203 361.653961,216.007690 369.707184,217.163422 
	C361.731598,210.898209 354.878876,203.805893 350.688385,193.582443 
M407.491791,214.060318 
	C418.356995,206.904297 423.644073,196.367477 425.547974,183.886490 
	C425.840851,181.966461 426.575256,179.028946 423.469055,178.630081 
	C420.505920,178.249588 420.913116,181.255951 420.552338,182.957199 
	C417.757385,196.137604 411.329712,206.985947 400.489319,215.133698 
	C399.721161,215.711060 398.191284,215.829575 398.561890,217.568634 
	C401.685974,217.315018 404.228149,215.738525 407.491791,214.060318 
M435.760620,179.343613 
	C432.331482,183.986832 433.790619,189.705917 432.062653,194.863739 
	C438.429199,191.899750 445.300079,190.074829 448.657745,183.410675 
	C450.875366,179.009247 449.078369,176.297729 444.213318,176.140457 
	C441.217987,176.043640 438.723846,177.227173 435.760620,179.343613 
z"/>
<path
	d="
M316.832764,268.707062 
	C313.357056,256.973969 318.933929,250.525314 332.887604,249.400238 
	C322.483856,245.664246 313.078644,239.170517 301.574799,238.462875 
	C299.199585,238.316772 296.930817,238.588913 294.746094,239.547211 
	C290.472534,241.421753 286.918945,246.566315 287.441284,250.514465 
	C288.099731,255.491577 291.938446,257.223572 296.121826,258.267395 
	C298.027100,258.742798 300.085388,258.570221 302.060059,258.809174 
	C306.272491,259.318909 309.797455,263.070435 309.996948,267.160614 
	C310.190125,271.122772 307.143097,274.420380 302.583496,275.183685 
	C290.196960,277.257263 275.237000,266.069824 273.797241,253.656601 
	C272.664459,243.889954 281.571472,232.642441 292.785522,229.711655 
	C301.521698,227.428467 309.948303,228.803284 318.205078,231.958221 
	C328.131744,235.751190 337.599091,240.795242 348.150848,242.883224 
	C358.382019,244.907776 368.326477,244.070999 377.981506,240.046036 
	C379.320068,239.488007 380.640930,238.547333 382.914459,239.735504 
	C380.338531,246.188660 373.948425,248.741196 369.217834,253.199081 
	C370.816498,254.587753 372.707367,255.674866 374.149231,258.427002 
	C375.655182,251.758636 378.491455,247.093124 385.493073,247.879303 
	C389.845947,248.368057 392.179291,251.540375 393.010620,255.549805 
	C393.854614,259.620392 391.885925,262.819000 388.405334,264.695740 
	C383.004181,267.608032 378.870758,264.955536 375.174805,260.594269 
	C372.500031,263.730286 370.208679,267.616425 365.361542,265.222534 
	C361.551544,263.340881 361.138367,260.046783 362.372009,256.380798 
	C360.694916,255.883148 359.470062,256.082062 358.136841,257.021729 
	C361.574493,261.424774 363.700928,266.323761 355.674774,266.958221 
	C350.825317,267.341583 350.555756,262.754669 351.950897,258.397003 
	C345.571045,258.702637 339.627777,258.892944 333.701782,259.321930 
	C331.595581,259.474396 330.029877,260.834534 331.299133,263.074310 
	C333.951263,267.754364 333.728760,271.763885 328.867462,274.589294 
	C325.156982,276.745850 320.573486,274.445282 316.832764,268.707062 
z"/>
<path
	d="
M457.040771,240.976624 
	C449.360199,242.152084 443.115112,246.884308 435.853851,249.347092 
	C438.880035,250.020599 441.835236,249.991318 444.665588,250.986847 
	C450.218292,252.939987 452.116913,257.533783 452.721832,262.622681 
	C453.269348,267.229126 451.094421,271.052246 447.201965,273.664764 
	C444.184296,275.690125 440.938751,276.242645 437.977753,273.669495 
	C435.176849,271.235443 434.251526,268.069855 436.119476,264.679749 
	C438.370667,260.594116 436.727844,259.225220 432.710480,259.145508 
	C427.407928,259.040344 422.094116,259.223175 416.255524,257.995667 
	C417.091400,261.967224 417.932709,265.788269 413.433044,267.115845 
	C409.758972,268.199829 408.082794,265.414154 406.527313,262.403015 
	C403.242828,265.457733 399.736389,267.896545 395.860809,263.728088 
	C391.768005,259.326019 395.227753,256.217316 398.506836,253.065353 
	C394.003448,248.542130 387.744690,246.061447 385.247375,240.062317 
	C386.923920,238.201813 388.350006,239.280991 389.606201,239.821228 
	C404.888275,246.393402 419.771912,244.421951 434.658203,238.229630 
	C444.149719,234.281403 453.336578,229.253098 463.905579,228.495758 
	C470.739838,228.006058 477.271881,229.231766 483.008148,233.015869 
	C490.268250,237.805222 494.848572,244.587082 494.188751,253.490753 
	C493.458954,263.338562 486.770905,269.127655 478.407074,273.137665 
	C474.606934,274.959595 470.507233,275.769592 466.250275,275.277161 
	C461.439178,274.720642 458.250122,271.422272 458.355469,267.175720 
	C458.465332,262.746887 461.991608,259.102844 466.635803,258.762665 
	C468.790131,258.604858 470.928131,258.665100 473.032318,257.908600 
	C477.143646,256.430511 480.871460,254.709534 480.683411,249.420624 
	C480.521759,244.873474 477.046326,240.439819 472.250031,239.460983 
	C467.331299,238.457153 462.323975,238.353424 457.287720,240.779205 
	C457.005554,241.001144 457.040771,240.976624 457.040771,240.976624 
z"/>
<path
	d="
M449.741516,127.258804 
	C429.527863,107.495354 405.650330,97.328430 377.713287,99.490799 
	C346.360840,101.917511 321.896362,116.891029 305.248932,143.797134 
	C296.965179,157.185608 292.279938,171.804810 292.238831,187.727036 
	C292.234741,189.305725 292.517242,191.172058 290.402679,191.894592 
	C281.400604,179.233841 302.448608,132.945297 324.901550,115.973297 
	C367.223297,83.982605 426.065369,91.243858 458.761963,131.682327 
	C473.687134,150.141479 482.901672,187.488449 476.010864,192.938232 
	C475.124603,167.637573 467.035278,145.704285 449.741516,127.258804 
z"/>
<path
	d="
M361.757538,139.941437 
	C358.320557,128.094940 361.682037,115.802330 369.314331,111.616295 
	C370.460114,112.088257 370.692719,113.083305 370.426453,114.085785 
	C367.229034,126.123337 371.999878,136.200729 378.196869,145.933578 
	C379.980652,148.735092 381.833588,151.493423 383.575684,154.320328 
	C385.067108,156.740417 386.103333,159.345001 386.562897,162.185150 
	C386.893646,164.229340 387.248444,166.528351 385.130005,167.488113 
	C382.846039,168.522858 382.164062,166.079773 381.191132,164.642456 
	C378.556335,160.750122 375.092560,157.634583 371.676727,154.483459 
	C367.344360,150.486816 363.666321,146.060852 361.757538,139.941437 
z"/>
<path
	d="
M393.205933,131.128723 
	C396.970093,139.497940 395.925079,145.765045 389.658966,150.120743 
	C388.083008,141.175323 380.837799,135.415726 378.145660,127.211655 
	C376.406403,121.911415 375.825195,116.589188 380.122101,110.223976 
	C383.869019,118.176323 388.235199,124.630562 393.205933,131.128723 
z"/>
<path
	d="
M434.525177,49.605888 
	C438.147675,41.801224 439.986481,33.584782 444.236755,26.207655 
	C447.043518,28.211231 446.143372,29.836626 445.563690,31.315460 
	C438.342255,49.737221 431.096710,68.149559 423.822266,86.550438 
	C423.239532,88.024544 422.806763,89.899338 419.138672,89.047684 
	C424.265564,75.896950 429.321289,62.928757 434.525177,49.605888 
z"/>
<path
	d="
M280.548218,136.421783 
	C282.872345,138.455307 286.786407,138.324997 286.930908,142.217361 
	C284.763184,143.823471 283.319641,142.196396 281.853760,141.356049 
	C265.131226,131.769623 248.434357,122.138428 231.741348,112.500648 
	C230.743027,111.924263 229.746201,111.282677 228.925964,110.488365 
	C228.547928,110.122276 228.375687,109.261589 228.503342,108.717407 
	C228.729721,107.752556 229.668457,107.496475 230.495239,107.774559 
	C231.583282,108.140518 232.624847,108.689316 233.624481,109.266716 
	C249.166550,118.243881 264.698578,127.238411 280.548218,136.421783 
z"/>
<path
	d="
M507.753479,128.778519 
	C498.971405,133.928726 490.637207,139.148956 481.579041,143.456299 
	C480.400269,139.986542 482.415375,139.327179 483.907990,138.463303 
	C500.771912,128.703125 517.647522,118.962982 534.544739,109.260529 
	C535.900208,108.482170 537.309875,107.219902 540.274353,109.286400 
	C529.776123,116.810715 518.664612,122.303574 507.753479,128.778519 
z"/>
<path
	d="
M331.113190,53.827358 
	C327.827545,45.093056 324.054169,36.949478 321.669830,28.297958 
	C321.506104,27.703846 321.910217,26.999033 322.908356,26.727415 
	C324.983612,26.705494 325.100189,28.660883 325.668976,30.108097 
	C332.839386,48.352886 340.005219,66.599632 347.086029,84.879257 
	C347.655518,86.349411 349.516083,88.580772 346.774200,89.470764 
	C344.712952,90.139839 344.347748,87.652344 343.780151,86.214897 
	C339.570160,75.552681 335.431610,64.862251 331.113190,53.827358 
z"/>
<path
	d="
M478.352844,82.804199 
	C473.447540,90.665215 455.203522,107.604309 451.588074,107.903496 
	C450.483124,105.656654 452.332275,104.614441 453.529602,103.405151 
	C460.305511,96.561447 467.084778,89.719894 473.962555,82.979340 
	C475.107117,81.857613 476.496368,78.958649 478.352844,82.804199 
z"/>
<path
	d="
M310.382996,99.621124 
	C312.575562,102.394272 316.138336,103.696671 316.563293,107.403564 
	C314.511322,109.004135 313.269836,107.573219 312.134216,106.452286 
	C305.020691,99.430733 297.941864,92.373657 290.902191,85.278069 
	C289.801086,84.168205 287.958740,82.771423 289.908936,81.169945 
	C291.506165,79.858337 292.577667,81.730576 293.568695,82.717728 
	C299.115601,88.242928 304.615906,93.814934 310.382996,99.621124 
z"/>
<path
	d="
M456.989655,241.015472 
	C457.631256,240.959488 458.287598,240.843048 458.946442,240.826492 
	C462.583557,240.735138 465.063385,242.401260 465.783722,245.982269 
	C466.380188,248.947449 464.838684,251.130966 462.228271,252.413452 
	C459.200073,253.901169 456.661285,252.785309 454.853455,250.263794 
	C452.799164,247.398422 453.409851,244.659561 455.942596,242.296768 
	C456.183746,242.071793 456.390991,241.810440 456.827393,241.271301 
	C457.040771,240.976624 457.005554,241.001144 456.989655,241.015472 
z"/>
<path
	d="
M526.606079,174.306885 
	C514.891479,175.458786 503.629150,177.554596 491.879700,177.293549 
	C492.630646,173.996902 494.525360,174.055771 496.060547,173.893143 
	C506.087158,172.831009 516.123596,171.861649 526.158997,170.883987 
	C527.307251,170.772125 528.650330,170.610855 529.023621,172.108948 
	C529.414490,173.677719 528.233459,174.063400 526.606079,174.306885 
z"/>
<path
	d="
M252.641876,172.050507 
	C258.706207,172.670471 264.327881,173.147537 269.938599,173.730026 
	C272.089111,173.953308 274.614838,173.553253 275.823090,176.179031 
	C274.420410,178.100357 272.587799,177.418457 271.083344,177.280289 
	C261.334534,176.385040 251.598251,175.352448 241.860825,174.336334 
	C240.442398,174.188309 238.418015,174.375961 238.935287,172.063416 
	C239.331146,170.293686 241.066284,170.676865 242.280029,171.067719 
	C245.537415,172.116714 248.929459,171.261124 252.641876,172.050507 
z"/>
<path
	d="
M382.643921,73.961075 
	C382.644806,64.829956 382.644806,56.193314 382.644806,46.394558 
	C386.709259,50.603470 387.036377,80.229713 383.970795,84.989845 
	C381.649323,81.539001 383.055023,77.856163 382.643921,73.961075 
z"/>
<path
	d="
M308.118927,240.932892 
	C313.680420,242.555542 315.830963,245.819733 313.915802,249.368134 
	C312.558868,251.882263 310.436646,253.442001 307.409607,252.802811 
	C304.736267,252.238327 303.005066,250.521317 302.656616,247.741913 
	C302.175903,243.907700 304.352020,241.953568 308.118927,240.932892 
z"/>
</svg>